<?xml version="1.0" encoding="UTF-8" standalone="no"?>
<!DOCTYPE svg PUBLIC "-//W3C//DTD SVG 1.1//EN" "http://www.w3.org/Graphics/SVG/1.1/DTD/svg11.dtd">
<svg version="1.1" xmlns="http://www.w3.org/2000/svg" xmlns:xlink="http://www.w3.org/1999/xlink" preserveAspectRatio="xMidYMid meet" viewBox="251.99347723949595 -1 498.0130908940505 603.9999639675628" width="494.01" height="600"><defs><path d="M350.11 432.11C334.69 371.08 350.66 275.56 366.58 228.79C366.93 149.68 391.32 102.86 439.09 89.6C440.81 89.13 442.62 89.1 444.36 89.54C472.69 96.71 494.48 114.83 509.13 143.38C511.72 148.42 509.73 154.6 504.68 157.2C499.67 159.77 493.46 157.79 490.86 152.75C479.33 130.27 463.32 116.32 441.98 110.15C405.56 121.86 387.1 162.33 387.1 230.51C387.1 231.66 386.91 232.81 386.53 233.9C370.64 279.42 356.07 371.9 370.02 427.11C387.61 497.46 455.63 574.67 500 574.67C505.67 574.67 510.26 579.27 510.26 584.94C510.26 590.61 505.67 595.2 500 595.2C441.24 595.2 368.47 505.52 350.11 432.11Z" id="c2ZkhZrQZt"></path><path d="M350.23 432.53C290.8 231.76 304.08 175.38 322.77 153.83C318.07 122.53 321.52 99.99 333.25 85.05C340.42 75.93 350.42 70.06 363.06 67.54C364.64 55.51 371.18 45.31 382.32 37.66C436.29 -5.64 478.65 -11.72 507.58 20.04C511.4 24.23 511.1 30.72 506.91 34.54C502.71 38.35 496.22 38.05 492.41 33.87C484.83 25.56 461.76 0.25 394.55 54.12C385.96 60.06 382.58 66.79 383.3 75.73C383.53 78.47 382.64 81.18 380.85 83.26C379.06 85.34 376.51 86.62 373.77 86.81C362.54 87.57 354.57 91.14 349.4 97.73C340.93 108.51 339.06 127.96 343.84 155.55C344.45 159.04 343.21 162.6 340.57 164.96C326.35 177.66 311.25 228.55 369.91 426.71C371.52 432.14 368.42 437.85 362.98 439.46C362.01 439.74 361.03 439.89 360.07 439.89C355.64 439.89 351.55 437 350.23 432.53Z" id="cCi4su7NR"></path><path d="M466.38 491.24C458.38 484.1 453.44 484.94 449.71 486.77C445.34 488.86 440.14 487.63 437.18 483.85C434.21 480.05 434.27 474.7 437.34 470.99C455.55 448.94 470.69 439.14 484.92 439.54C491.31 439.82 500.57 442.53 508.44 453.89C511.66 458.56 510.5 464.94 505.84 468.17C501.16 471.4 494.78 470.22 491.56 465.58C487.85 460.22 484.99 460.09 484.05 460.05C482.02 460.03 476.95 460.85 468.42 468.11C472.18 469.85 476.1 472.4 480.14 476.01C486.58 481.92 492.81 484.47 499.27 484.04C504.82 483.8 509.83 487.89 510.23 493.55C510.64 499.21 506.38 504.11 500.73 504.52C499.73 504.59 498.73 504.63 497.74 504.63C486.61 504.63 476.07 500.12 466.38 491.24Z" id="cdQkyW8IZ"></path><path d="M499.64 427.9C487.82 427.5 478.24 422.36 471.66 412.98C464.83 411.81 459.98 408.84 457.2 404.12C453.79 398.33 454.19 391.28 458.38 383.17C461 378.14 467.2 376.16 472.21 378.78C477.24 381.37 479.22 387.57 476.61 392.6C476.56 392.72 476.5 392.82 476.45 392.93C476.91 392.97 477.45 393 478.06 393.02C481.78 393.13 485.16 395.25 486.88 398.56C489.93 404.45 494.08 407.17 500.35 407.39C506.01 407.58 510.45 412.33 510.26 418C510.06 423.54 505.51 427.91 500 427.91C499.89 427.91 499.76 427.91 499.64 427.9Z" id="fddrdPyQn"></path><path d="M470.59 363.14C470.23 356.5 471.56 346.34 475.22 328.05C476.34 322.49 481.69 318.91 487.3 320C492.86 321.11 496.46 326.52 495.35 332.08C493.36 342.03 490.75 355.96 491.09 362C491.4 367.66 487.07 372.51 481.41 372.81C481.22 372.82 481.02 372.84 480.83 372.84C475.42 372.84 470.89 368.6 470.59 363.14Z" id="bLoJ3ugpV"></path><path d="M433.58 267.54L435.93 267.75L438.22 268.06L440.45 268.47L442.63 268.96L444.75 269.55L446.81 270.21L448.82 270.96L450.78 271.79L452.68 272.68L454.53 273.64L456.33 274.67L458.07 275.76L459.77 276.91L461.41 278.1L463 279.35L464.54 280.64L466.04 281.97L467.48 283.34L468.87 284.75L470.22 286.18L471.52 287.64L472.78 289.12L473.98 290.62L475.14 292.13L476.26 293.66L477.33 295.19L477.45 295.37L477.57 295.55L477.68 295.73L477.79 295.91L477.89 296.1L477.99 296.28L478.08 296.47L478.17 296.66L478.26 296.86L478.34 297.05L478.42 297.25L478.5 297.44L478.57 297.64L478.64 297.84L478.7 298.04L478.76 298.24L478.81 298.44L478.86 298.65L478.91 298.85L478.95 299.06L478.98 299.26L479.02 299.47L479.05 299.68L479.07 299.89L479.09 300.1L479.11 300.31L479.12 300.52L479.13 300.73L479.13 300.94L479.13 301.15L479.12 301.36L479.11 301.57L479.1 301.78L479.08 301.99L479.06 302.2L479.03 302.41L479 302.62L478.96 302.83L478.92 303.04L478.88 303.25L478.83 303.46L478.77 303.67L478.72 303.87L478.65 304.07L478.59 304.28L478.52 304.48L478.44 304.67L478.37 304.87L478.28 305.07L478.2 305.26L478.11 305.45L478.02 305.64L477.92 305.82L477.82 306.01L477.71 306.19L477.6 306.37L477.49 306.55L477.38 306.72L477.26 306.89L477.14 307.06L477.01 307.23L476.88 307.4L476.75 307.56L476.61 307.72L476.47 307.88L476.33 308.03L476.18 308.18L476.04 308.33L475.88 308.47L475.73 308.62L475.57 308.76L475.41 308.89L475.24 309.03L475.08 309.16L474.91 309.28L474.73 309.4L474.56 309.52L474.38 309.64L474.2 309.75L474.02 309.86L472.86 310.53L471.72 311.17L470.58 311.8L469.44 312.41L468.32 313.01L467.2 313.59L466.09 314.15L464.98 314.69L463.88 315.22L462.79 315.73L461.71 316.23L460.63 316.7L459.56 317.16L458.5 317.61L457.44 318.04L456.39 318.44L455.34 318.84L454.3 319.21L453.27 319.57L452.25 319.92L451.23 320.24L450.21 320.55L449.21 320.84L448.21 321.12L447.21 321.38L446.23 321.62L445.25 321.84L444.27 322.05L443.3 322.24L442.34 322.42L441.38 322.58L440.43 322.72L439.49 322.84L438.55 322.95L437.61 323.04L436.69 323.12L435.76 323.18L434.85 323.22L433.94 323.24L433.04 323.25L432.66 323.25L432.29 323.25L431.92 323.24L431.55 323.23L431.18 323.22L430.82 323.2L430.45 323.18L430.09 323.16L429.72 323.14L429.36 323.11L429 323.08L428.63 323.05L428.27 323.01L427.91 322.97L427.56 322.93L427.2 322.89L426.84 322.84L426.49 322.79L426.13 322.74L425.78 322.69L425.43 322.63L425.07 322.57L424.72 322.5L424.37 322.44L424.02 322.37L423.67 322.3L423.33 322.22L422.98 322.14L422.63 322.06L422.29 321.98L421.95 321.89L421.6 321.8L421.26 321.71L420.92 321.62L420.58 321.52L420.24 321.42L419.9 321.32L419.56 321.21L419.23 321.1L418.89 320.99L417.94 320.65L417 320.29L416.07 319.91L415.15 319.51L414.24 319.08L413.34 318.64L412.45 318.16L411.58 317.67L410.71 317.16L409.86 316.62L409.02 316.06L408.18 315.47L407.37 314.87L406.56 314.24L405.76 313.59L404.97 312.92L404.2 312.23L403.44 311.51L402.69 310.77L401.95 310.01L401.22 309.23L400.5 308.42L399.79 307.6L399.1 306.75L398.42 305.88L397.75 304.99L397.09 304.07L396.44 303.14L395.81 302.18L395.18 301.2L394.57 300.2L393.97 299.17L393.38 298.13L392.8 297.06L392.24 295.97L391.69 294.86L391.14 293.73L390.61 292.58L390.1 291.4L389.59 290.2L389.45 289.83L389.32 289.46L389.2 289.08L389.1 288.7L389.02 288.32L388.95 287.94L388.89 287.56L388.85 287.18L388.82 286.8L388.81 286.42L388.81 286.04L388.83 285.66L388.86 285.29L388.9 284.91L388.96 284.54L389.03 284.17L389.11 283.81L389.21 283.44L389.32 283.09L389.44 282.73L389.58 282.38L389.73 282.04L389.89 281.7L390.06 281.37L390.25 281.04L390.44 280.72L390.65 280.41L390.88 280.1L391.11 279.8L391.35 279.51L391.61 279.23L391.88 278.96L392.15 278.7L392.44 278.44L392.74 278.2L393.05 277.96L393.37 277.74L393.71 277.53L394.05 277.33L394.4 277.14L397.61 275.56L400.75 274.13L403.83 272.85L406.84 271.72L409.79 270.73L412.68 269.88L415.5 269.16L418.26 268.57L420.97 268.1L423.61 267.76L426.19 267.54L428.71 267.43L431.18 267.43L433.58 267.54ZM424.02 288.37L421.4 288.84L418.72 289.47L415.98 290.27L413.16 291.24L413.78 292.15L414.41 293.03L415.06 293.87L415.72 294.66L416.39 295.42L417.07 296.14L417.77 296.82L418.48 297.47L419.2 298.07L419.94 298.64L420.69 299.16L421.45 299.65L422.23 300.11L423.02 300.52L423.82 300.9L424.64 301.24L425.47 301.54L426.74 301.92L428.04 302.23L429.4 302.46L430.79 302.61L432.23 302.69L433.72 302.69L435.24 302.61L436.81 302.46L438.43 302.23L440.08 301.93L441.78 301.55L443.52 301.1L445.3 300.57L447.12 299.97L448.99 299.29L450.89 298.53L452.84 297.71L450.92 295.96L448.96 294.39L446.95 292.99L444.89 291.76L442.79 290.7L440.63 289.82L438.43 289.1L436.17 288.56L433.86 288.18L431.49 287.97L429.06 287.94L426.57 288.07L424.02 288.37Z" id="i18xJ7ZFcU"></path><path d="M343.91 397.6C288.28 372.71 281.2 312.01 273.69 247.76C269.59 212.6 265.34 176.26 253.54 141.44C252.13 137.3 253.51 132.72 256.96 130.04C260.42 127.36 265.2 127.17 268.86 129.55C301.77 150.99 321.48 180.38 327.44 216.89C328.35 222.48 324.56 227.75 318.96 228.67C313.33 229.51 308.09 225.79 307.18 220.19C303.88 199.96 295.47 182.3 282.08 167.4C288.03 193.59 291.09 219.79 294.08 245.37C301.47 308.71 307.32 358.74 352.29 378.86C357.46 381.18 359.78 387.25 357.47 392.42C355.76 396.23 352.02 398.49 348.09 398.49C346.69 398.49 345.27 398.21 343.91 397.6Z" id="a7ZaiQYiPd"></path><path d="M321.49 598.84C318.64 597.37 316.64 594.65 316.09 591.49C307.8 543.8 304.99 467.84 307.74 365.72C307.88 360.14 312.45 355.72 317.99 355.72C318.09 355.72 318.18 355.72 318.27 355.73C323.94 355.88 328.41 360.6 328.26 366.26C325.81 457.2 327.78 526.81 334.11 573.59C344.1 566.92 349.64 559.62 350.97 551.48C351.52 548.06 353.76 545.16 356.93 543.75C360.1 542.34 363.76 542.64 366.66 544.5C379.2 552.58 390.03 556.53 399.92 556.09C404.88 552.29 409.38 547.08 413.6 540.22C416.56 535.39 422.88 533.9 427.72 536.85C432.55 539.82 434.05 546.15 431.08 550.97C424.69 561.35 417.54 569.11 409.22 574.66C407.84 575.59 406.25 576.16 404.6 576.33C392.63 577.57 380.16 574.94 366.8 568.22C360.6 580.28 348.64 590.43 330.61 599C329.22 599.67 327.71 600 326.21 600C324.59 600 322.97 599.61 321.49 598.84Z" id="aq2Wg51q2"></path><path d="M637 439.46C631.57 437.85 628.46 432.14 630.07 426.71C688.66 228.83 673.59 177.75 659.39 164.92C656.79 162.57 655.57 159.07 656.15 155.62C660.75 127.91 658.79 108.4 650.26 97.61C645.11 91.1 637.24 87.56 626.21 86.81C620.61 86.42 616.36 81.61 616.67 76C617.18 66.71 613.81 59.9 606.05 54.57C537.75 0.24 515.08 25.51 507.63 33.82C503.86 38.03 497.36 38.38 493.14 34.59C488.92 30.8 488.58 24.31 492.37 20.1C520.95 -11.71 563.32 -5.66 618.25 38.08C628.68 45.23 635.08 55.37 636.79 67.52C649.3 70.02 659.22 75.84 666.36 84.89C678.16 99.82 681.72 122.4 677.2 153.83C695.85 175.47 709.17 231.88 649.76 432.53C648.44 437 644.35 439.89 639.92 439.89C638.96 439.89 637.97 439.74 637 439.46Z" id="a21KlUD7IU"></path><path d="M499.27 504.52C493.62 504.11 489.35 499.21 489.76 493.55C490.16 487.89 495.13 483.81 500.73 484.04C507.19 484.5 513.42 481.92 519.76 476.1C523.71 472.44 527.57 469.87 531.27 468.13C522.7 460.82 517.59 460.05 515.66 460.05C514.76 460.1 512.03 460.23 508.51 465.46C505.36 470.18 498.98 471.41 494.27 468.26C489.57 465.08 488.32 458.71 491.48 454.01C499.14 442.62 508.3 439.86 514.64 439.56C528.86 438.9 544.02 448.83 562.3 470.99C565.39 474.73 565.45 480.11 562.43 483.91C559.41 487.7 554.13 488.85 549.81 486.7C547.81 485.7 542.47 483.04 533.66 491.2C523.93 500.12 513.38 504.63 502.25 504.63C501.26 504.63 500.27 504.59 499.27 504.52Z" id="amscDkBTJ"></path><path d="M489.74 418C489.54 412.33 493.98 407.58 499.64 407.39C505.85 407.18 509.79 404.54 513.26 398.3C515.02 395.13 518.32 393.12 521.94 393.02C522.41 393 522.84 392.98 523.23 392.95C523.21 392.92 523.19 392.88 523.16 392.84C520.43 387.87 522.24 381.63 527.21 378.89C532.18 376.18 538.41 377.97 541.15 382.94C545.6 391.03 546.17 398.12 542.81 404C540.05 408.82 535.16 411.84 528.21 413C521.38 422.49 512.04 427.5 500.35 427.9C500.23 427.91 500.11 427.91 499.99 427.91C494.49 427.91 489.93 423.54 489.74 418Z" id="b17zQsBKPQ"></path><path d="M508.89 362.57C508.89 359.79 508.48 351.26 504.65 332.08C503.54 326.52 507.15 321.11 512.7 320C518.26 318.93 523.66 322.49 524.78 328.05C527.82 343.26 529.42 355.19 529.42 362.57C529.42 368.24 524.83 372.84 519.16 372.84C513.49 372.84 508.89 368.24 508.89 362.57Z" id="a39ba0Wdau"></path><path d="M508.84 284.25C504.48 280.63 503.88 274.16 507.5 269.8C528.36 244.68 558.85 235.16 598.12 241.59C603.72 242.51 607.52 247.78 606.6 253.38C605.69 258.98 600.3 262.72 594.82 261.85C562.8 256.62 539.4 263.52 523.29 282.91C521.27 285.35 518.33 286.62 515.4 286.62C513.07 286.62 510.75 285.84 508.84 284.25Z" id="b13azQjwuw"></path><path d="M576.1 267.75L578.76 268.09L581.48 268.55L584.26 269.14L587.1 269.86L590.01 270.71L592.99 271.7L596.03 272.84L599.13 274.11L602.31 275.54L605.55 277.12L605.9 277.31L606.25 277.51L606.59 277.72L606.91 277.95L607.23 278.18L607.53 278.43L607.82 278.68L608.1 278.95L608.37 279.23L608.63 279.51L608.88 279.8L609.11 280.1L609.34 280.41L609.55 280.73L609.75 281.05L609.93 281.38L610.11 281.72L610.27 282.06L610.42 282.41L610.56 282.76L610.68 283.12L610.79 283.48L610.89 283.84L610.97 284.21L611.04 284.59L611.09 284.96L611.14 285.34L611.16 285.72L611.18 286.1L611.18 286.48L611.16 286.87L611.13 287.25L611.09 287.64L611.03 288.02L610.96 288.4L610.87 288.79L610.76 289.17L610.64 289.55L610.51 289.92L610.36 290.3L609.84 291.5L609.3 292.68L608.76 293.84L608.2 294.97L607.63 296.08L607.05 297.18L606.46 298.25L605.86 299.29L605.24 300.32L604.62 301.32L603.98 302.31L603.33 303.27L602.67 304.2L602 305.12L601.31 306.01L600.62 306.88L599.91 307.73L599.19 308.56L598.47 309.37L597.72 310.15L596.97 310.91L596.21 311.65L595.44 312.36L594.65 313.05L593.85 313.72L593.05 314.37L592.23 315L591.4 315.6L590.56 316.18L589.71 316.74L588.84 317.28L587.97 317.79L587.08 318.28L586.19 318.75L585.28 319.19L584.36 319.61L583.44 320.01L582.5 320.39L581.55 320.74L580.58 321.07L580.25 321.18L579.92 321.28L579.59 321.39L579.26 321.48L578.93 321.58L578.59 321.67L578.26 321.77L577.92 321.85L577.58 321.94L577.25 322.02L576.91 322.1L576.57 322.18L576.23 322.26L575.89 322.33L575.54 322.4L575.2 322.46L574.86 322.53L574.51 322.59L574.17 322.65L573.82 322.7L573.47 322.76L573.12 322.81L572.77 322.86L572.42 322.9L572.07 322.94L571.72 322.98L571.37 323.02L571.02 323.05L570.66 323.09L570.31 323.11L569.95 323.14L569.59 323.16L569.23 323.18L568.87 323.2L568.51 323.22L568.15 323.23L567.79 323.24L567.43 323.25L567.07 323.25L566.7 323.25L565.8 323.24L564.89 323.22L563.98 323.18L563.06 323.12L562.14 323.04L561.21 322.95L560.27 322.84L559.33 322.72L558.38 322.58L557.43 322.42L556.47 322.24L555.5 322.05L554.53 321.84L553.55 321.62L552.57 321.37L551.58 321.11L550.59 320.84L549.59 320.55L548.58 320.24L547.56 319.91L546.54 319.57L545.52 319.21L544.49 318.83L543.45 318.44L542.4 318.03L541.35 317.6L540.29 317.15L539.23 316.69L538.16 316.22L537.08 315.72L536 315.21L534.91 314.68L533.81 314.14L532.71 313.57L531.6 312.99L530.48 312.4L529.36 311.79L528.23 311.16L527.09 310.51L525.94 309.84L525.76 309.74L525.58 309.62L525.41 309.51L525.23 309.39L525.06 309.26L524.9 309.14L524.73 309.01L524.57 308.88L524.41 308.74L524.25 308.6L524.1 308.46L523.95 308.32L523.8 308.17L523.66 308.02L523.52 307.87L523.38 307.71L523.24 307.55L523.11 307.39L522.98 307.23L522.86 307.06L522.74 306.89L522.62 306.72L522.5 306.54L522.39 306.37L522.29 306.19L522.18 306.01L522.08 305.83L521.99 305.64L521.89 305.45L521.8 305.27L521.72 305.07L521.64 304.88L521.56 304.69L521.48 304.49L521.41 304.29L521.35 304.09L521.29 303.89L521.23 303.69L521.17 303.48L521.12 303.27L521.08 303.07L521.04 302.86L521 302.65L520.97 302.44L520.94 302.23L520.92 302.03L520.9 301.82L520.89 301.61L520.88 301.4L520.87 301.19L520.87 300.98L520.87 300.77L520.88 300.56L520.89 300.36L520.9 300.15L520.92 299.94L520.95 299.73L520.97 299.53L521 299.32L521.04 299.12L521.08 298.91L521.12 298.71L521.17 298.51L521.22 298.31L521.28 298.11L521.34 297.91L521.41 297.71L521.47 297.51L521.55 297.32L521.62 297.12L521.7 296.93L521.79 296.74L521.88 296.55L521.97 296.36L522.07 296.18L522.17 295.99L522.27 295.81L522.38 295.63L522.49 295.45L522.61 295.27L523.66 293.74L524.76 292.21L525.9 290.69L527.09 289.19L528.32 287.71L529.6 286.24L530.93 284.81L532.31 283.4L533.74 282.03L535.22 280.69L536.74 279.39L538.32 278.14L539.95 276.94L541.64 275.79L543.37 274.7L545.16 273.67L547 272.71L548.9 271.81L550.85 270.98L552.85 270.23L554.91 269.56L557.03 268.97L559.21 268.47L561.45 268.06L563.74 267.75L566.09 267.54L568.5 267.43L570.97 267.42L573.51 267.53L576.1 267.75ZM565.89 288.17L563.58 288.55L561.33 289.09L559.13 289.81L556.99 290.7L554.9 291.75L552.86 292.98L550.87 294.38L548.93 295.95L547.03 297.69L548.95 298.52L550.83 299.28L552.67 299.95L554.47 300.56L556.23 301.09L557.95 301.54L559.63 301.92L561.27 302.22L562.86 302.45L564.42 302.61L565.93 302.68L567.41 302.69L568.84 302.62L570.23 302.47L571.58 302.25L572.88 301.95L574.15 301.58L574.99 301.28L575.82 300.94L576.64 300.57L577.44 300.15L578.23 299.7L579.01 299.21L579.77 298.68L580.53 298.11L581.26 297.5L581.99 296.86L582.7 296.17L583.4 295.45L584.09 294.69L584.76 293.88L585.42 293.04L586.08 292.16L586.71 291.24L583.87 290.27L581.1 289.47L578.39 288.83L575.76 288.36L573.2 288.06L570.7 287.93L568.26 287.97L565.89 288.17Z" id="aQnk6TQ7O"></path><path d="M669.38 599C651.23 590.37 639.17 580.23 632.92 568.27C619.83 574.87 607.33 577.62 595.4 576.33C593.74 576.16 592.16 575.59 590.77 574.66C581.92 568.74 574.52 560.68 568.76 550.72C565.93 545.81 567.63 539.54 572.54 536.7C577.45 533.89 583.71 535.57 586.56 540.47C590.23 546.84 594.76 552.09 600.06 556.09C609.85 556.37 620.87 552.49 632.9 544.56C635.81 542.65 639.52 542.34 642.66 543.72C645.86 545.12 648.12 548.04 648.67 551.48C649.99 559.55 655.63 566.85 665.8 573.58C671.95 526.37 673.82 456.76 671.41 366.26C671.26 360.6 675.72 355.88 681.39 355.73C681.49 355.72 681.58 355.72 681.66 355.72C687.21 355.72 691.77 360.14 691.92 365.72C694.65 467.28 691.95 543.21 683.91 591.42C683.38 594.6 681.39 597.35 678.54 598.83C677.05 599.61 675.42 600 673.79 600C672.28 600 670.78 599.67 669.38 599Z" id="dpbq9Vi44"></path><path d="M476.71 282.91C460.6 263.52 437.08 256.65 404.82 261.85C399.19 262.72 393.95 258.95 393.05 253.36C392.14 247.77 395.94 242.49 401.54 241.59C441.03 235.2 471.64 244.69 492.5 269.8C496.12 274.16 495.52 280.63 491.16 284.25C489.25 285.84 486.92 286.62 484.61 286.62C481.66 286.62 478.74 285.36 476.71 282.91Z" id="a2xawqwwGo"></path><path d="M642.18 392.4C639.87 387.23 642.19 381.16 647.38 378.86C692.62 358.7 698.49 308.6 705.93 245.16C708.94 219.52 712.01 193.25 718 167.02C704.52 181.82 696.21 199.41 692.81 220.19C691.9 225.79 686.54 229.53 681.04 228.67C675.44 227.75 671.64 222.48 672.56 216.89C678.55 180.12 698.28 150.72 731.18 129.52C734.85 127.16 739.61 127.37 743.06 130.05C746.5 132.74 747.86 137.31 746.46 141.44C734.68 176.18 730.42 212.46 726.32 247.55C718.76 311.91 711.65 372.69 655.72 397.6C654.37 398.21 652.95 398.49 651.55 398.49C647.62 398.49 643.88 396.23 642.18 392.4Z" id="c1Tr1eMoMs"></path><path d="M489.73 584.94C489.73 579.27 494.33 574.67 500 574.67C547.57 574.67 613.55 491.53 629.97 427.09C644.06 371.4 629.25 279.14 613.15 233.96C612.75 232.85 612.55 231.69 612.55 230.51C612.55 161.28 594.61 121.86 557.71 110.16C536.56 116.34 520.65 130.3 509.13 152.75C506.54 157.8 500.34 159.78 495.31 157.19C490.27 154.6 488.28 148.42 490.87 143.38C505.5 114.87 527.17 96.76 555.26 89.55C556.98 89.1 558.82 89.1 560.54 89.59C608.32 102.76 632.71 149.57 633.07 228.75C649.23 275.24 665.46 370.53 649.86 432.14C631.16 505.55 558.33 595.2 500 595.2C494.33 595.2 489.73 590.61 489.73 584.94Z" id="b18LrWMgr"></path></defs><g><g><use xlink:href="#c2ZkhZrQZt" opacity="1" fill="#000000" fill-opacity="1"></use><g><use xlink:href="#c2ZkhZrQZt" opacity="1" fill-opacity="0" stroke="#000000" stroke-width="1" stroke-opacity="0"></use></g></g><g><use xlink:href="#cCi4su7NR" opacity="1" fill="#000000" fill-opacity="1"></use><g><use xlink:href="#cCi4su7NR" opacity="1" fill-opacity="0" stroke="#000000" stroke-width="1" stroke-opacity="0"></use></g></g><g><use xlink:href="#cdQkyW8IZ" opacity="1" fill="#000000" fill-opacity="1"></use><g><use xlink:href="#cdQkyW8IZ" opacity="1" fill-opacity="0" stroke="#000000" stroke-width="1" stroke-opacity="0"></use></g></g><g><use xlink:href="#fddrdPyQn" opacity="1" fill="#000000" fill-opacity="1"></use><g><use xlink:href="#fddrdPyQn" opacity="1" fill-opacity="0" stroke="#000000" stroke-width="1" stroke-opacity="0"></use></g></g><g><use xlink:href="#bLoJ3ugpV" opacity="1" fill="#000000" fill-opacity="1"></use><g><use xlink:href="#bLoJ3ugpV" opacity="1" fill-opacity="0" stroke="#000000" stroke-width="1" stroke-opacity="0"></use></g></g><g><use xlink:href="#i18xJ7ZFcU" opacity="1" fill="#000000" fill-opacity="1"></use><g><use xlink:href="#i18xJ7ZFcU" opacity="1" fill-opacity="0" stroke="#000000" stroke-width="1" stroke-opacity="0"></use></g></g><g><use xlink:href="#a7ZaiQYiPd" opacity="1" fill="#000000" fill-opacity="1"></use><g><use xlink:href="#a7ZaiQYiPd" opacity="1" fill-opacity="0" stroke="#000000" stroke-width="1" stroke-opacity="0"></use></g></g><g><use xlink:href="#aq2Wg51q2" opacity="1" fill="#000000" fill-opacity="1"></use><g><use xlink:href="#aq2Wg51q2" opacity="1" fill-opacity="0" stroke="#000000" stroke-width="1" stroke-opacity="0"></use></g></g><g><use xlink:href="#a21KlUD7IU" opacity="1" fill="#000000" fill-opacity="1"></use><g><use xlink:href="#a21KlUD7IU" opacity="1" fill-opacity="0" stroke="#000000" stroke-width="1" stroke-opacity="0"></use></g></g><g><use xlink:href="#amscDkBTJ" opacity="1" fill="#000000" fill-opacity="1"></use><g><use xlink:href="#amscDkBTJ" opacity="1" fill-opacity="0" stroke="#000000" stroke-width="1" stroke-opacity="0"></use></g></g><g><use xlink:href="#b17zQsBKPQ" opacity="1" fill="#000000" fill-opacity="1"></use><g><use xlink:href="#b17zQsBKPQ" opacity="1" fill-opacity="0" stroke="#000000" stroke-width="1" stroke-opacity="0"></use></g></g><g><use xlink:href="#a39ba0Wdau" opacity="1" fill="#000000" fill-opacity="1"></use><g><use xlink:href="#a39ba0Wdau" opacity="1" fill-opacity="0" stroke="#000000" stroke-width="1" stroke-opacity="0"></use></g></g><g><use xlink:href="#b13azQjwuw" opacity="1" fill="#000000" fill-opacity="1"></use><g><use xlink:href="#b13azQjwuw" opacity="1" fill-opacity="0" stroke="#000000" stroke-width="1" stroke-opacity="0"></use></g></g><g><use xlink:href="#aQnk6TQ7O" opacity="1" fill="#000000" fill-opacity="1"></use><g><use xlink:href="#aQnk6TQ7O" opacity="1" fill-opacity="0" stroke="#000000" stroke-width="1" stroke-opacity="0"></use></g></g><g><use xlink:href="#dpbq9Vi44" opacity="1" fill="#000000" fill-opacity="1"></use><g><use xlink:href="#dpbq9Vi44" opacity="1" fill-opacity="0" stroke="#000000" stroke-width="1" stroke-opacity="0"></use></g></g><g><use xlink:href="#a2xawqwwGo" opacity="1" fill="#000000" fill-opacity="1"></use><g><use xlink:href="#a2xawqwwGo" opacity="1" fill-opacity="0" stroke="#000000" stroke-width="1" stroke-opacity="0"></use></g></g><g><use xlink:href="#c1Tr1eMoMs" opacity="1" fill="#000000" fill-opacity="1"></use><g><use xlink:href="#c1Tr1eMoMs" opacity="1" fill-opacity="0" stroke="#000000" stroke-width="1" stroke-opacity="0"></use></g></g><g><use xlink:href="#b18LrWMgr" opacity="1" fill="#000000" fill-opacity="1"></use><g><use xlink:href="#b18LrWMgr" opacity="1" fill-opacity="0" stroke="#000000" stroke-width="1" stroke-opacity="0"></use></g></g></g></svg>