<?xml version="1.0" encoding="UTF-8" standalone="no"?>
<!DOCTYPE svg PUBLIC "-//W3C//DTD SVG 1.1//EN" "http://www.w3.org/Graphics/SVG/1.1/DTD/svg11.dtd">
<svg version="1.1" xmlns="http://www.w3.org/2000/svg" xmlns:xlink="http://www.w3.org/1999/xlink" preserveAspectRatio="xMidYMid meet" viewBox="254.79975393170986 -1.0000011080420501 491.021419721252 604.000001108042" width="487.02" height="600"><defs><path d="M424.72 588.23C364.01 536.34 330.34 477.26 324.65 412.6C324.15 406.95 328.33 401.98 333.98 401.48C339.58 400.87 344.62 405.16 345.1 410.81C349.77 463.85 375.45 513.15 421.5 557.59C421.68 528.48 420.74 498.31 418.62 466.08C347.49 381.9 346.49 322.49 367.48 297.03C382.24 279.13 407.01 276.08 435.53 288.06C437.27 255.75 431.09 223.85 417.08 193C351.81 147.53 304.92 101.57 277.06 55.85C280.5 115.86 296.32 158.86 324.29 184.01C328.51 187.8 328.85 194.29 325.07 198.5C321.27 202.74 314.76 203.06 310.56 199.27C270.72 163.45 252.93 101.51 256.17 9.89C256.35 4.96 260.01 0.85 264.88 0.1C269.82 -0.57 274.47 2.19 276.11 6.84C295.84 62.72 347.96 120.22 431.06 177.72C432.56 178.75 433.75 180.16 434.53 181.81C453.18 221.61 459.93 263.12 454.59 305.19C454.15 308.58 452.05 311.54 448.99 313.08C445.94 314.61 442.31 314.53 439.32 312.82C414.5 298.68 393.56 297.65 383.32 310.09C365.93 331.18 378.6 387.84 436.44 455.33C437.88 457.02 438.74 459.11 438.89 461.32C441.76 503.9 442.67 542.95 441.65 580.7C441.56 584.66 439.19 588.2 435.57 589.81C434.22 590.4 432.81 590.7 431.39 590.7C428.99 590.7 426.62 589.85 424.72 588.23Z" id="d1cGf5IVP"></path><path d="M297.91 278.77C261.72 224.12 250.05 165.52 263.24 104.6C264.43 99.05 269.91 95.53 275.44 96.73C280.98 97.93 284.51 103.39 283.3 108.93C271.17 165.03 281.55 216.87 315.03 267.42C318.17 272.15 316.87 278.52 312.14 281.65C310.4 282.81 308.43 283.36 306.48 283.36C303.16 283.36 299.89 281.75 297.91 278.77Z" id="n1EpGSs1vg"></path><path d="M336.97 377.32C287.14 355.81 266.88 308.41 276.78 236.44C277.56 230.83 282.56 226.86 288.36 227.67C293.97 228.44 297.9 233.63 297.13 239.24C288.52 301.82 304.21 340.81 345.11 358.46C350.32 360.71 352.72 366.76 350.48 371.96C348.79 375.84 345.02 378.16 341.04 378.16C339.67 378.16 338.3 377.89 336.97 377.32Z" id="fWmInVNKx"></path><path d="M284.13 324.27C282.89 318.74 286.38 313.25 291.92 312.02C297.35 310.79 302.95 314.27 304.17 319.81C318.77 385.39 340.08 416.09 367.71 411.52C373.33 410.53 378.6 414.31 379.56 419.9C380.53 425.49 376.77 430.79 371.18 431.75C367.94 432.3 364.77 432.59 361.66 432.59C326.21 432.59 300.15 396.22 284.13 324.27Z" id="k23jxg8dpj"></path><path d="M492.3 373.85C468.92 348.59 446.54 335.6 425.77 335.24C408.63 334.59 391.66 343.3 375.02 360.06C371.03 364.09 364.53 364.12 360.51 360.12C356.48 356.14 356.45 349.63 360.45 345.61C381.17 324.71 403.37 314.08 426.12 314.72C452.71 315.16 480.04 330.37 507.37 359.89C511.23 364.05 510.97 370.54 506.82 374.4C504.84 376.23 502.34 377.13 499.84 377.13C497.08 377.13 494.33 376.03 492.3 373.85Z" id="e4I3aHKSd"></path><path d="M387.4 171.42C383.45 167.35 383.55 160.85 387.62 156.9C412.14 133.08 436.85 116.53 461.07 107.72C466.42 105.8 472.3 108.52 474.23 113.86C476.17 119.19 473.43 125.08 468.1 127.02C446.62 134.83 424.35 149.84 401.93 171.63C399.94 173.56 397.35 174.53 394.77 174.53C392.1 174.53 389.42 173.49 387.4 171.42Z" id="b73S3UFjH"></path><path d="M425.53 563.63C421.02 560.19 420.13 553.76 423.55 549.24C426.97 544.71 433.43 543.83 437.94 547.26C466.94 569.26 484.46 580.07 499.26 579.43C504.93 579.14 509.77 583.42 510.08 589.09C510.41 594.75 506.08 599.6 500.42 599.92C499.44 599.98 498.46 600 497.48 600C477.18 600 457.69 588.01 425.53 563.63Z" id="bNGUFNELK"></path><path d="M562.67 589.79C559.06 588.15 556.7 584.58 556.63 580.62C555.89 538.97 556.8 499.96 559.4 461.32C559.56 459.11 560.42 457.02 561.86 455.33C619.78 387.75 632.51 331.08 615.15 310.02C604.96 297.69 584.07 298.73 559.32 312.82C556.34 314.53 552.71 314.61 549.65 313.08C546.59 311.54 544.49 308.58 544.05 305.19C538.71 263.12 545.46 221.61 564.11 181.81C564.89 180.17 566.07 178.76 567.55 177.73C650.77 119.91 702.92 62.41 722.53 6.84C724.17 2.18 728.88 -0.58 733.76 0.1C738.63 0.85 742.29 4.96 742.46 9.89C745.66 99.92 727.36 163.63 688.11 199.24C683.9 203.05 677.42 202.75 673.61 198.54C669.8 194.34 670.12 187.85 674.32 184.03C702.28 158.66 718.11 115.63 721.57 55.8C693.76 101.35 646.87 147.32 581.57 193C567.55 223.84 561.37 255.74 563.11 288.06C591.55 276.11 616.28 279.13 630.98 296.96C651.96 322.38 650.89 381.8 579.67 466.08C577.74 495.94 576.83 526.07 576.93 557.55C623.13 513.2 648.87 463.91 653.54 410.81C654.02 405.16 659.14 400.86 664.66 401.48C670.31 401.98 674.49 406.95 673.99 412.6C668.3 477.37 634.51 536.46 573.55 588.26C571.65 589.86 569.3 590.7 566.9 590.7C565.46 590.7 564.03 590.39 562.67 589.79Z" id="d14Emgr8w7"></path><path d="M687.91 281.68C683.17 278.57 681.85 272.2 684.96 267.46C718.39 216.51 728.76 164.66 716.71 108.93C715.51 103.39 719.04 97.93 724.58 96.73C730.14 95.56 735.59 99.06 736.78 104.6C749.88 165.12 738.22 223.7 702.13 278.72C700.16 281.73 696.88 283.36 693.53 283.36C691.6 283.36 689.65 282.82 687.91 281.68Z" id="bmOl67iaf"></path><path d="M649.2 371.94C646.96 366.72 649.38 360.69 654.59 358.46C695.7 340.84 711.5 301.84 702.88 239.24C702.12 233.63 706.04 228.44 711.66 227.67C717.4 226.86 722.46 230.83 723.23 236.44C733.14 308.47 712.78 355.86 662.68 377.32C661.36 377.89 659.99 378.16 658.63 378.16C654.65 378.16 650.86 375.83 649.2 371.94Z" id="b2Srpx8Jw"></path><path d="M628.84 431.75C623.25 430.79 619.49 425.49 620.46 419.9C621.41 414.31 626.76 410.54 632.3 411.52C659.55 416.22 680.91 385.36 695.5 319.81C696.73 314.27 702.31 310.8 707.75 312.02C713.29 313.25 716.78 318.74 715.55 324.27C699.52 396.21 673.55 432.57 638.26 432.57C635.18 432.57 632.05 432.3 628.84 431.75Z" id="amSK5dyB4"></path><path d="M492.83 374.38C488.68 370.51 488.46 364.01 492.33 359.86C519.83 330.36 547.21 315.18 573.71 314.72C596.33 313.93 618.66 324.69 639.54 345.57C643.55 349.58 643.55 356.09 639.54 360.1C635.54 364.11 629.03 364.11 625.02 360.1C608 343.08 591.56 334.61 574.06 335.24C553.36 335.61 530.91 348.6 507.35 373.87C505.32 376.04 502.59 377.13 499.84 377.13C497.33 377.13 494.82 376.22 492.83 374.38Z" id="a6gSSWlR5Q"></path><path d="M597.7 171.57C575.69 149.88 553.56 134.89 531.92 127.02C526.59 125.08 523.84 119.19 525.79 113.86C527.71 108.52 533.56 105.79 538.95 107.72C563.37 116.6 587.98 133.17 612.11 156.95C616.15 160.93 616.2 167.43 612.21 171.47C610.21 173.51 607.56 174.53 604.9 174.53C602.3 174.53 599.69 173.55 597.7 171.57Z" id="a1gI3bLDk"></path><path d="M499.27 599.92C493.61 599.61 489.27 594.76 489.59 589.11C489.9 583.43 495.02 579.02 500.4 579.43C515.8 580.1 533.67 568.79 561.69 547.3C566.18 543.85 572.64 544.7 576.09 549.19C579.54 553.7 578.69 560.14 574.19 563.59C542.97 587.53 522.82 600 502.14 600C501.18 600 500.23 599.98 499.27 599.92Z" id="e4d5x7jHE"></path><path d="M465.17 535.52C456.19 528.71 449.95 529.89 445.58 531.73C441.09 533.55 435.89 532.03 433.15 528C430.42 523.96 430.9 518.56 434.29 515.07C453.49 495.38 469.68 486.03 484.45 486.82C493.48 487.26 501.57 491.6 507.83 499.38C511.39 503.8 510.7 510.26 506.28 513.81C501.84 517.4 495.4 516.68 491.84 512.25C488.45 508.05 485.44 507.43 483.47 507.34C480.61 507.15 475.61 508.12 467.78 513.27C470.97 514.71 474.26 516.64 477.64 519.2C484.93 524.81 491.64 527.29 499.5 527.05C505.25 526.57 509.92 531.3 510.1 536.97C510.28 542.64 505.85 547.38 500.18 547.57C499.59 547.59 498.99 547.6 498.41 547.6C486.62 547.6 475.73 543.64 465.17 535.52Z" id="a3fvLr5Bor"></path><path d="M499.5 547.57C493.82 547.38 489.39 542.64 489.58 536.97C489.76 531.3 494.49 526.5 500.18 527.05C507.63 527.37 515.13 524.73 521.83 519.36C525.4 516.75 528.84 514.77 532.16 513.3C524.42 508.16 519.35 507.14 516.55 507.34C514.48 507.41 511.35 508.01 507.75 512.36C504.13 516.75 497.68 517.32 493.29 513.73C488.93 510.12 488.31 503.65 491.93 499.27C498.38 491.47 506.62 487.15 515.77 486.81C529.97 486.4 546.58 495.51 565.43 515.12C568.81 518.65 569.25 524.06 566.47 528.08C563.7 532.09 558.46 533.58 553.98 531.69C550.12 530.02 543.89 528.62 534.31 535.66C524.52 543.51 513.3 547.6 501.28 547.6C500.69 547.6 500.1 547.59 499.5 547.57Z" id="b6ackjMUGc"></path><path d="M483.14 471.65C478.58 468.3 477.6 461.86 480.96 457.3C484.31 452.74 490.75 451.73 495.31 455.12C498.22 457.24 501.82 457.24 504.71 455.12C509.27 451.73 515.71 452.74 519.06 457.3C522.42 461.86 521.44 468.3 516.88 471.65C511.83 475.36 505.92 477.21 500.01 477.21C494.1 477.21 488.19 475.36 483.14 471.65Z" id="cT5cY8PGU"></path><path d="M429.03 357.58L431.48 357.81L433.9 358.12L436.3 358.52L438.66 359.01L440.99 359.58L443.3 360.24L445.57 360.99L447.81 361.82L450.02 362.74L452.2 363.75L454.35 364.84L456.47 366.02L458.56 367.29L460.61 368.64L462.64 370.08L464.63 371.61L466.59 373.22L468.52 374.92L470.42 376.71L472.29 378.58L474.13 380.54L475.93 382.58L477.71 384.72L477.85 384.9L477.99 385.08L478.13 385.27L478.26 385.46L478.39 385.66L478.51 385.85L478.63 386.05L478.74 386.25L478.85 386.46L478.95 386.66L479.05 386.87L479.14 387.08L479.23 387.29L479.32 387.5L479.4 387.72L479.47 387.93L479.54 388.15L479.6 388.37L479.66 388.59L479.72 388.81L479.77 389.03L479.81 389.26L479.85 389.48L479.89 389.71L479.92 389.94L479.94 390.16L479.96 390.39L479.97 390.62L479.98 390.85L479.99 391.08L479.99 391.31L479.98 391.54L479.97 391.77L479.95 392L479.93 392.23L479.91 392.46L479.87 392.69L479.84 392.92L479.79 393.15L479.75 393.38L479.69 393.61L479.64 393.83L479.57 394.06L479.51 394.28L479.43 394.5L479.36 394.72L479.27 394.93L479.19 395.15L479.1 395.36L479 395.57L478.9 395.77L478.79 395.98L478.68 396.18L478.57 396.38L478.45 396.57L478.33 396.76L478.2 396.95L478.07 397.14L477.94 397.33L477.8 397.51L477.66 397.69L477.51 397.86L477.36 398.03L477.21 398.2L477.05 398.37L476.88 398.53L476.72 398.69L476.55 398.84L476.38 398.99L476.2 399.14L476.02 399.28L475.84 399.42L475.65 399.55L475.46 399.69L475.27 399.81L475.07 399.94L474.87 400.06L474.67 400.17L474.46 400.28L474.25 400.39L472.85 401.07L471.45 401.73L470.07 402.38L468.7 403L467.34 403.6L465.99 404.19L464.66 404.75L463.34 405.29L462.03 405.82L460.73 406.32L459.45 406.81L458.17 407.28L456.91 407.73L455.66 408.16L454.42 408.57L453.19 408.97L451.98 409.34L450.77 409.7L449.58 410.04L448.4 410.36L447.23 410.67L446.07 410.96L444.92 411.23L443.78 411.49L442.66 411.72L441.54 411.95L440.44 412.15L439.34 412.34L438.26 412.51L437.19 412.67L436.13 412.81L435.08 412.94L434.04 413.05L433.02 413.14L432 413.22L430.99 413.29L429.99 413.34L429.01 413.37L428.03 413.4L427.07 413.4L425.11 413.37L423.2 413.29L421.33 413.14L419.5 412.94L417.72 412.69L415.97 412.38L414.27 412.02L412.6 411.62L410.98 411.16L409.39 410.66L407.85 410.12L406.34 409.52L404.87 408.89L403.44 408.22L402.04 407.5L400.68 406.75L399.36 405.97L398.07 405.14L396.81 404.29L395.59 403.4L394.41 402.48L393.26 401.53L392.14 400.55L391.05 399.55L390 398.52L388.97 397.46L387.98 396.39L387.02 395.29L386.09 394.18L385.19 393.04L384.32 391.89L383.47 390.73L382.66 389.55L381.87 388.36L381.11 387.16L380.38 385.95L379.68 384.73L379 383.5L378.34 382.27L377.71 381.04L377.62 380.85L377.53 380.66L377.45 380.47L377.37 380.27L377.29 380.08L377.22 379.88L377.15 379.68L377.09 379.49L377.03 379.29L376.97 379.09L376.92 378.89L376.87 378.68L376.83 378.48L376.79 378.28L376.76 378.07L376.73 377.87L376.7 377.66L376.68 377.46L376.66 377.25L376.64 377.05L376.63 376.84L376.63 376.63L376.63 376.43L376.63 376.22L376.64 376.01L376.65 375.8L376.66 375.6L376.68 375.39L376.71 375.18L376.73 374.98L376.76 374.77L376.8 374.57L376.84 374.36L376.89 374.16L376.93 373.96L376.99 373.75L377.04 373.55L377.1 373.35L377.17 373.15L377.24 372.95L377.31 372.75L377.39 372.56L377.47 372.36L377.56 372.17L377.65 371.98L377.74 371.8L377.84 371.61L377.94 371.43L378.04 371.25L378.15 371.07L378.26 370.9L378.38 370.72L378.49 370.55L378.62 370.38L378.74 370.22L378.87 370.05L379 369.89L379.13 369.74L379.27 369.58L379.41 369.43L379.55 369.28L379.7 369.13L379.85 368.99L380 368.85L380.15 368.71L380.31 368.58L380.47 368.45L380.63 368.32L380.8 368.19L380.97 368.07L381.14 367.95L381.31 367.84L381.49 367.73L381.66 367.62L381.84 367.51L382.03 367.41L382.21 367.31L382.4 367.22L382.59 367.13L382.78 367.04L385.73 365.79L388.66 364.62L391.56 363.54L394.42 362.55L397.26 361.65L400.07 360.83L402.85 360.1L405.6 359.46L408.32 358.9L411.01 358.43L413.67 358.05L416.31 357.75L418.91 357.55L421.48 357.43L424.03 357.39L426.54 357.44L429.03 357.58ZM418.51 378.18L415.93 378.46L413.31 378.85L410.63 379.36L407.91 379.99L405.13 380.73L402.31 381.58L403.52 382.94L404.81 384.25L406.2 385.5L407.68 386.68L409.26 387.79L410.95 388.8L412.74 389.73L414.65 390.54L416.67 391.25L418.82 391.83L421.09 392.29L423.5 392.6L426.04 392.77L428.72 392.78L431.55 392.62L434.53 392.29L437.67 391.78L440.96 391.08L444.42 390.18L448.05 389.06L451.85 387.73L449.91 386.29L447.94 384.96L445.92 383.75L443.87 382.65L441.78 381.67L439.65 380.81L437.47 380.05L435.26 379.42L433 378.9L430.7 378.49L428.35 378.2L425.96 378.02L423.52 377.96L421.04 378.01L418.51 378.18Z" id="aRStfCDiq"></path><path d="M583.69 357.85L586.72 358.18L589.82 358.64L592.99 359.21L596.24 359.92L599.55 360.76L602.94 361.73L606.4 362.84L609.94 364.09L613.55 365.49L617.24 367.04L617.43 367.13L617.62 367.22L617.81 367.31L617.99 367.41L618.17 367.51L618.35 367.62L618.53 367.73L618.71 367.84L618.88 367.95L619.05 368.07L619.22 368.19L619.38 368.32L619.55 368.45L619.71 368.58L619.86 368.71L620.02 368.85L620.17 368.99L620.32 369.13L620.47 369.28L620.61 369.43L620.75 369.58L620.89 369.74L621.02 369.89L621.15 370.05L621.28 370.22L621.4 370.38L621.52 370.55L621.64 370.72L621.76 370.9L621.87 371.07L621.97 371.25L622.08 371.43L622.18 371.61L622.27 371.8L622.37 371.98L622.46 372.17L622.54 372.36L622.63 372.56L622.7 372.75L622.78 372.95L622.85 373.15L622.91 373.35L622.97 373.55L623.03 373.75L623.08 373.96L623.13 374.16L623.18 374.36L623.22 374.57L623.25 374.77L623.28 374.98L623.31 375.18L623.34 375.39L623.36 375.6L623.37 375.8L623.38 376.01L623.39 376.22L623.39 376.43L623.39 376.63L623.38 376.84L623.37 377.05L623.36 377.25L623.34 377.46L623.32 377.66L623.29 377.87L623.26 378.07L623.23 378.28L623.19 378.48L623.15 378.68L623.1 378.89L623.05 379.09L622.99 379.29L622.93 379.49L622.87 379.68L622.8 379.88L622.73 380.08L622.65 380.27L622.57 380.47L622.49 380.66L622.4 380.85L622.31 381.04L621.68 382.27L621.02 383.5L620.34 384.72L619.64 385.94L618.9 387.15L618.14 388.35L617.36 389.55L616.54 390.72L615.7 391.89L614.83 393.04L613.93 394.17L613 395.29L612.04 396.38L611.04 397.46L610.02 398.51L608.97 399.54L607.88 400.54L606.76 401.52L605.61 402.47L604.42 403.39L603.21 404.28L601.95 405.14L600.66 405.96L599.34 406.75L597.98 407.5L596.58 408.22L595.15 408.89L593.68 409.52L592.17 410.11L590.62 410.66L589.04 411.16L587.41 411.62L585.75 412.02L584.05 412.38L582.3 412.69L580.51 412.94L578.69 413.14L576.82 413.29L574.91 413.37L572.95 413.4L571.99 413.4L571.01 413.37L570.02 413.34L569.03 413.29L568.02 413.22L567 413.14L565.97 413.05L564.94 412.94L563.89 412.81L562.83 412.67L561.76 412.51L560.67 412.34L559.58 412.15L558.48 411.95L557.36 411.72L556.24 411.49L555.1 411.23L553.95 410.96L552.79 410.67L551.62 410.36L550.44 410.04L549.25 409.7L548.04 409.34L546.83 408.97L545.6 408.57L544.36 408.16L543.11 407.73L541.85 407.28L540.57 406.81L539.29 406.32L537.99 405.82L536.68 405.29L535.36 404.75L534.02 404.19L532.68 403.6L531.32 403L529.95 402.38L528.57 401.73L527.17 401.07L525.77 400.39L525.56 400.28L525.35 400.17L525.15 400.06L524.95 399.94L524.76 399.81L524.56 399.69L524.37 399.56L524.19 399.42L524 399.28L523.82 399.14L523.65 398.99L523.48 398.84L523.31 398.69L523.14 398.53L522.98 398.37L522.82 398.21L522.67 398.04L522.52 397.87L522.37 397.7L522.23 397.52L522.09 397.34L521.95 397.16L521.82 396.97L521.7 396.78L521.57 396.59L521.45 396.4L521.34 396.2L521.23 396L521.13 395.8L521.03 395.59L520.93 395.38L520.84 395.17L520.75 394.96L520.67 394.75L520.59 394.53L520.52 394.31L520.45 394.09L520.38 393.87L520.32 393.64L520.27 393.42L520.22 393.19L520.18 392.96L520.14 392.73L520.11 392.51L520.08 392.28L520.06 392.05L520.05 391.82L520.03 391.59L520.03 391.36L520.03 391.13L520.03 390.9L520.04 390.68L520.05 390.45L520.07 390.22L520.09 389.99L520.12 389.77L520.15 389.54L520.19 389.32L520.24 389.1L520.28 388.88L520.34 388.65L520.4 388.43L520.46 388.22L520.53 388L520.6 387.78L520.68 387.57L520.76 387.36L520.84 387.15L520.94 386.94L521.03 386.73L521.13 386.52L521.24 386.32L521.35 386.12L521.46 385.92L521.58 385.72L521.71 385.53L521.84 385.34L521.97 385.15L522.11 384.96L522.25 384.78L523.47 383.27L524.74 381.78L526.07 380.29L527.44 378.82L528.87 377.37L530.36 375.94L531.89 374.53L533.49 373.15L535.13 371.81L536.84 370.5L538.6 369.23L540.41 368.01L542.29 366.83L544.23 365.71L546.22 364.64L548.27 363.63L550.39 362.68L552.56 361.8L554.8 361L557.1 360.26L559.47 359.6L561.89 359.03L564.39 358.54L566.94 358.14L569.57 357.84L572.26 357.63L575.01 357.52L577.84 357.52L580.73 357.63L583.69 357.85ZM571.61 378.29L569.26 378.58L566.95 378.99L564.68 379.5L562.46 380.14L560.28 380.88L558.15 381.74L556.06 382.71L554.01 383.79L552 384.99L550.04 386.3L548.12 387.72L551.93 389.05L555.56 390.16L559.02 391.06L562.32 391.77L565.46 392.28L568.44 392.61L571.27 392.76L573.95 392.76L576.5 392.59L578.91 392.28L581.18 391.83L583.33 391.25L585.35 390.55L587.26 389.73L589.06 388.81L590.74 387.8L592.32 386.7L593.8 385.51L595.19 384.27L596.49 382.95L597.7 381.59L594.88 380.75L592.11 380.03L589.38 379.42L586.7 378.92L584.07 378.53L581.49 378.26L578.95 378.1L576.46 378.05L574.01 378.11L571.61 378.29Z" id="c5GpGLqLpR"></path><path d="M553.31 267.83C517.91 262.15 482.06 262.15 446.71 267.83C441.1 268.73 435.85 264.91 434.94 259.32C434.05 253.72 437.86 248.45 443.46 247.55C481.02 241.54 519.04 241.54 556.56 247.55C562.16 248.45 565.97 253.72 565.08 259.32C564.26 264.36 559.9 267.96 554.95 267.96C554.4 267.96 553.86 267.92 553.31 267.83Z" id="d16TUgZhWC"></path><path d="M503.88 80.5L505.87 80.62L507.82 80.79L509.74 81L511.63 81.25L513.49 81.55L515.31 81.89L517.1 82.28L518.85 82.7L520.56 83.16L522.24 83.67L523.87 84.21L525.46 84.79L527 85.41L528.51 86.07L529.96 86.76L531.37 87.48L532.73 88.24L534.04 89.03L535.3 89.85L536.51 90.71L537.66 91.59L538.76 92.51L539.8 93.45L540.78 94.42L541.7 95.42L542.57 96.45L543.37 97.5L544.11 98.58L544.78 99.68L545.39 100.8L545.94 101.95L546.41 103.12L546.82 104.3L547.15 105.51L547.41 106.74L547.6 107.98L547.72 109.25L547.75 110.53L547.72 111.81L547.6 113.07L547.41 114.31L547.15 115.54L546.82 116.75L546.41 117.94L545.94 119.11L545.39 120.25L544.78 121.37L544.11 122.47L543.37 123.55L542.57 124.6L541.7 125.63L540.78 126.63L539.8 127.6L538.76 128.54L537.66 129.46L536.51 130.35L535.3 131.2L534.04 132.02L532.73 132.81L531.37 133.57L529.96 134.3L528.51 134.99L527 135.64L525.46 136.26L523.87 136.84L522.24 137.38L520.56 137.89L518.85 138.35L517.1 138.78L515.31 139.16L513.49 139.5L511.63 139.8L509.74 140.06L507.82 140.27L505.87 140.43L503.88 140.55L501.87 140.62L499.84 140.65L497.82 140.62L495.82 140.55L493.85 140.43L491.92 140.27L490.01 140.06L488.13 139.8L486.29 139.5L484.48 139.16L482.7 138.78L480.96 138.35L479.26 137.89L477.6 137.38L475.98 136.84L474.4 136.26L472.87 135.64L471.38 134.99L469.93 134.3L468.53 133.57L467.18 132.81L465.88 132.02L464.63 131.2L463.43 130.35L462.29 129.46L461.2 128.54L460.17 127.6L459.19 126.63L458.27 125.63L457.41 124.6L456.62 123.55L455.88 122.47L455.21 121.37L454.61 120.25L454.07 119.11L453.6 117.94L453.2 116.75L452.86 115.54L452.6 114.31L452.41 113.07L452.3 111.81L452.26 110.53L452.3 109.25L452.41 107.98L452.6 106.74L452.86 105.51L453.2 104.3L453.6 103.12L454.07 101.95L454.61 100.8L455.21 99.68L455.88 98.58L456.62 97.5L457.41 96.45L458.27 95.42L459.19 94.42L460.17 93.45L461.2 92.51L462.29 91.59L463.43 90.71L464.63 89.85L465.88 89.03L467.18 88.24L468.53 87.48L469.93 86.76L471.38 86.07L472.87 85.41L474.4 84.79L475.98 84.21L477.6 83.67L479.26 83.16L480.96 82.7L482.7 82.28L484.48 81.89L486.29 81.55L488.13 81.25L490.01 81L491.92 80.79L493.85 80.62L495.82 80.5L497.82 80.43L499.84 80.41L501.87 80.43L503.88 80.5ZM495.47 101.1L493.41 101.29L491.46 101.54L489.59 101.84L487.82 102.2L486.14 102.61L484.56 103.05L483.07 103.53L481.68 104.04L480.39 104.57L479.19 105.12L478.1 105.67L477.1 106.24L476.21 106.8L475.42 107.35L474.73 107.89L474.14 108.41L473.66 108.91L473.29 109.37L473.02 109.8L472.86 110.19L472.8 110.53L472.86 110.86L473.02 111.25L473.29 111.68L473.66 112.14L474.14 112.64L474.73 113.16L475.42 113.7L476.21 114.26L477.1 114.82L478.1 115.38L479.19 115.94L480.39 116.48L481.68 117.01L483.07 117.52L484.56 118L486.14 118.45L487.82 118.85L489.59 119.21L491.46 119.52L493.41 119.77L495.47 119.95L497.61 120.07L499.84 120.11L502.1 120.07L504.27 119.95L506.34 119.77L508.33 119.52L510.22 119.21L512.01 118.85L513.71 118.45L515.31 118L516.82 117.52L518.23 117.01L519.54 116.48L520.75 115.94L521.86 115.38L522.86 114.82L523.77 114.26L524.57 113.7L525.27 113.16L525.86 112.64L526.34 112.14L526.72 111.68L527 111.25L527.16 110.86L527.22 110.53L527.16 110.19L527 109.8L526.72 109.37L526.34 108.91L525.86 108.41L525.27 107.89L524.57 107.35L523.77 106.8L522.86 106.24L521.86 105.67L520.75 105.12L519.54 104.57L518.23 104.04L516.82 103.53L515.31 103.05L513.71 102.61L512.01 102.2L510.22 101.84L508.33 101.54L506.34 101.29L504.27 101.1L502.1 100.99L499.84 100.95L497.61 100.99L495.47 101.1Z" id="aijTxhkIH"></path></defs><g><g><use xlink:href="#d1cGf5IVP" opacity="1" fill="#000000" fill-opacity="1"></use><g><use xlink:href="#d1cGf5IVP" opacity="1" fill-opacity="0" stroke="#000000" stroke-width="1" stroke-opacity="0"></use></g></g><g><use xlink:href="#n1EpGSs1vg" opacity="1" fill="#000000" fill-opacity="1"></use><g><use xlink:href="#n1EpGSs1vg" opacity="1" fill-opacity="0" stroke="#000000" stroke-width="1" stroke-opacity="0"></use></g></g><g><use xlink:href="#fWmInVNKx" opacity="1" fill="#000000" fill-opacity="1"></use><g><use xlink:href="#fWmInVNKx" opacity="1" fill-opacity="0" stroke="#000000" stroke-width="1" stroke-opacity="0"></use></g></g><g><use xlink:href="#k23jxg8dpj" opacity="1" fill="#000000" fill-opacity="1"></use><g><use xlink:href="#k23jxg8dpj" opacity="1" fill-opacity="0" stroke="#000000" stroke-width="1" stroke-opacity="0"></use></g></g><g><use xlink:href="#e4I3aHKSd" opacity="1" fill="#000000" fill-opacity="1"></use><g><use xlink:href="#e4I3aHKSd" opacity="1" fill-opacity="0" stroke="#000000" stroke-width="1" stroke-opacity="0"></use></g></g><g><use xlink:href="#b73S3UFjH" opacity="1" fill="#000000" fill-opacity="1"></use><g><use xlink:href="#b73S3UFjH" opacity="1" fill-opacity="0" stroke="#000000" stroke-width="1" stroke-opacity="0"></use></g></g><g><use xlink:href="#bNGUFNELK" opacity="1" fill="#000000" fill-opacity="1"></use><g><use xlink:href="#bNGUFNELK" opacity="1" fill-opacity="0" stroke="#000000" stroke-width="1" stroke-opacity="0"></use></g></g><g><use xlink:href="#d14Emgr8w7" opacity="1" fill="#000000" fill-opacity="1"></use><g><use xlink:href="#d14Emgr8w7" opacity="1" fill-opacity="0" stroke="#000000" stroke-width="1" stroke-opacity="0"></use></g></g><g><use xlink:href="#bmOl67iaf" opacity="1" fill="#000000" fill-opacity="1"></use><g><use xlink:href="#bmOl67iaf" opacity="1" fill-opacity="0" stroke="#000000" stroke-width="1" stroke-opacity="0"></use></g></g><g><use xlink:href="#b2Srpx8Jw" opacity="1" fill="#000000" fill-opacity="1"></use><g><use xlink:href="#b2Srpx8Jw" opacity="1" fill-opacity="0" stroke="#000000" stroke-width="1" stroke-opacity="0"></use></g></g><g><use xlink:href="#amSK5dyB4" opacity="1" fill="#000000" fill-opacity="1"></use><g><use xlink:href="#amSK5dyB4" opacity="1" fill-opacity="0" stroke="#000000" stroke-width="1" stroke-opacity="0"></use></g></g><g><use xlink:href="#a6gSSWlR5Q" opacity="1" fill="#000000" fill-opacity="1"></use><g><use xlink:href="#a6gSSWlR5Q" opacity="1" fill-opacity="0" stroke="#000000" stroke-width="1" stroke-opacity="0"></use></g></g><g><use xlink:href="#a1gI3bLDk" opacity="1" fill="#000000" fill-opacity="1"></use><g><use xlink:href="#a1gI3bLDk" opacity="1" fill-opacity="0" stroke="#000000" stroke-width="1" stroke-opacity="0"></use></g></g><g><use xlink:href="#e4d5x7jHE" opacity="1" fill="#000000" fill-opacity="1"></use><g><use xlink:href="#e4d5x7jHE" opacity="1" fill-opacity="0" stroke="#000000" stroke-width="1" stroke-opacity="0"></use></g></g><g><use xlink:href="#a3fvLr5Bor" opacity="1" fill="#000000" fill-opacity="1"></use><g><use xlink:href="#a3fvLr5Bor" opacity="1" fill-opacity="0" stroke="#000000" stroke-width="1" stroke-opacity="0"></use></g></g><g><use xlink:href="#b6ackjMUGc" opacity="1" fill="#000000" fill-opacity="1"></use><g><use xlink:href="#b6ackjMUGc" opacity="1" fill-opacity="0" stroke="#000000" stroke-width="1" stroke-opacity="0"></use></g></g><g><use xlink:href="#cT5cY8PGU" opacity="1" fill="#000000" fill-opacity="1"></use><g><use xlink:href="#cT5cY8PGU" opacity="1" fill-opacity="0" stroke="#000000" stroke-width="1" stroke-opacity="0"></use></g></g><g><use xlink:href="#aRStfCDiq" opacity="1" fill="#000000" fill-opacity="1"></use><g><use xlink:href="#aRStfCDiq" opacity="1" fill-opacity="0" stroke="#000000" stroke-width="1" stroke-opacity="0"></use></g></g><g><use xlink:href="#c5GpGLqLpR" opacity="1" fill="#000000" fill-opacity="1"></use><g><use xlink:href="#c5GpGLqLpR" opacity="1" fill-opacity="0" stroke="#000000" stroke-width="1" stroke-opacity="0"></use></g></g><g><use xlink:href="#d16TUgZhWC" opacity="1" fill="#000000" fill-opacity="1"></use><g><use xlink:href="#d16TUgZhWC" opacity="1" fill-opacity="0" stroke="#000000" stroke-width="1" stroke-opacity="0"></use></g></g><g><use xlink:href="#aijTxhkIH" opacity="1" fill="#000000" fill-opacity="1"></use><g><use xlink:href="#aijTxhkIH" opacity="1" fill-opacity="0" stroke="#000000" stroke-width="1" stroke-opacity="0"></use></g></g></g></svg>