<?xml version="1.0" encoding="UTF-8" standalone="no"?>
<!DOCTYPE svg PUBLIC "-//W3C//DTD SVG 1.1//EN" "http://www.w3.org/Graphics/SVG/1.1/DTD/svg11.dtd">
<svg version="1.1" xmlns="http://www.w3.org/2000/svg" xmlns:xlink="http://www.w3.org/1999/xlink" preserveAspectRatio="xMidYMid meet" viewBox="221.4337527225199 -1 559.13260730628 604.0000000000001" width="555.13" height="600"><defs><path d="M673.28 564.33C668.6 563.85 664.89 560.2 664.29 555.56C645.67 408.53 591.76 334.67 499.48 329.78C493.9 329.49 489.62 324.74 489.92 319.17C490.21 313.59 495.48 309.36 500.54 309.61C592.51 314.48 651.79 381.3 677.15 508.4C700.33 408.43 672.89 335.12 593.91 285.08C589.19 282.08 587.8 275.84 590.78 271.13C593.77 266.42 600.01 265.01 604.72 268C702.23 329.8 728.86 427.23 683.86 557.57C682.44 561.68 678.59 564.38 674.31 564.38C673.97 564.38 673.63 564.37 673.28 564.33Z" id="g1DBX46hzl"></path><path d="M639.37 270.93C635.66 266.76 636.03 260.38 640.21 256.67C644.36 252.96 650.73 253.33 654.47 257.49C660.25 263.99 662.95 264.45 662.98 264.46C663.09 263.9 672.91 254.72 671.07 177.47C670.96 167.64 669.61 163.39 668.86 161.78C666.79 162.5 661.17 165.41 650.23 177.24C646.43 181.34 640.03 181.59 635.96 177.79C631.85 174.01 631.6 167.62 635.39 163.52C647.07 150.88 662.34 137.14 676.39 142.55C689.45 147.58 691.14 164.69 691.27 177.12C693.31 262.18 682.07 278.47 669.61 283.38C667.4 284.26 665.15 284.69 662.85 284.69C655.39 284.69 647.53 280.08 639.37 270.93Z" id="f4AYd0cllJ"></path><path d="M685.13 427.56C682.3 422.74 683.91 416.55 688.72 413.73C707.3 402.82 719.81 383.93 726.91 356.05C715.36 311.97 696.94 271.37 672.17 235.35C668.99 230.76 670.16 224.46 674.76 221.3C679.36 218.13 685.64 219.31 688.8 223.9C715.41 262.55 735.02 306.15 747.12 353.49C747.52 355.08 747.53 356.74 747.16 358.34C738.93 392.69 722.72 417.19 698.96 431.14C697.36 432.09 695.59 432.54 693.85 432.54C690.38 432.54 687.01 430.75 685.13 427.56Z" id="bBzWshpUR"></path><path d="M498.23 404.29C492.74 403.31 489.08 398.06 490.06 392.56C491.05 387.08 496.29 383.47 501.79 384.4C521.82 388.01 538.46 385.5 549.93 377.24C559.76 370.15 565.88 358.82 568.09 343.59C568.9 338.07 573.96 334.22 579.54 335.05C585.06 335.85 588.88 340.97 588.08 346.49C585.1 367.07 575.99 383.36 561.75 393.63C550.2 401.95 535.54 406.19 518.7 406.19C512.18 406.19 505.34 405.56 498.23 404.29Z" id="a5AOv5QIHI"></path><path d="M649.51 156.03C646.66 116.33 634.32 87.86 612.83 71.43C588.59 52.9 551.28 48.37 501.95 58.04C496.49 59.06 491.17 55.54 490.1 50.06C489.02 44.59 492.59 39.28 498.06 38.2C553.32 27.37 596.04 33.16 625.1 55.38C651.39 75.48 666.39 108.86 669.67 154.58C670.07 160.15 665.88 164.98 660.31 165.38C660.06 165.4 659.83 165.41 659.58 165.41C654.33 165.41 649.89 161.35 649.51 156.03Z" id="bs3EdDSMw"></path><path d="M490.07 295.18C489.05 289.69 492.66 284.41 498.14 283.39C509.13 281.33 513.34 278.68 514.93 276.82C517.1 274.26 520.35 272.9 523.79 273.35C534.86 274.7 543.06 273.41 547.4 269.68C550.66 266.87 552.36 262.18 552.57 255.33C552.71 243.94 550.47 238.32 548.32 236.93C546.48 235.75 541.54 235.88 533.01 239.82C527.93 242.17 521.94 239.95 519.6 234.89C517.26 229.82 519.46 223.82 524.54 221.48C538.88 214.83 550.59 214.32 559.3 219.98C568.59 226 572.99 237.71 572.77 255.77C572.37 268.62 568.26 278.38 560.58 285C552.54 291.9 540.96 294.78 526.15 293.87C520.58 298.19 512.7 301.21 501.87 303.25C501.23 303.37 500.61 303.42 499.99 303.42C495.23 303.42 490.99 300.03 490.07 295.18Z" id="f5vo2Z2Jcj"></path><path d="M498.14 303.25C487.31 301.22 479.42 298.19 473.85 293.87C459.08 294.8 447.55 291.94 439.49 285.1C431.74 278.54 427.51 268.79 426.9 256.13C426.89 237.51 431.44 225.8 440.79 219.86C449.51 214.3 461.08 214.88 475.18 221.51C480.23 223.88 482.4 229.89 480.03 234.94C477.66 239.99 471.69 242.2 466.59 239.79C458.32 235.92 453.44 235.76 451.62 236.91C449.44 238.31 447.09 243.96 447.09 255.65C447.41 262.1 449.2 266.85 452.55 269.68C456.94 273.4 465.1 274.68 476.21 273.35C479.63 272.92 482.89 274.27 485.07 276.82C486.66 278.68 490.87 281.33 501.87 283.39C507.35 284.41 510.97 289.69 509.94 295.18C509.03 300.03 504.79 303.42 500.02 303.42C499.4 303.42 498.78 303.37 498.14 303.25Z" id="b16e9ZEzS1"></path><path d="M316.14 557.6C270.79 427.23 297.42 329.8 395.3 268C400.03 265.02 406.25 266.43 409.23 271.15C412.22 275.86 410.8 282.1 406.08 285.08C326.75 335.18 299.29 408.56 322.81 508.65C348.14 381.35 407.44 314.47 499.48 309.61C505.04 309.28 509.81 313.6 510.09 319.17C510.39 324.74 506.11 329.49 500.54 329.78C408.25 334.66 354.33 408.5 335.72 555.56C335.13 560.2 331.41 563.84 326.74 564.33C326.38 564.37 326.03 564.38 325.68 564.38C321.43 564.38 317.57 561.69 316.14 557.6Z" id="cKBaa28Bm"></path><path d="M330.29 283.38C317.71 278.42 306.36 262.09 308.39 176.99C308.52 164.68 310.22 147.57 323.42 142.53C337.7 137.08 352.76 150.91 364.32 163.57C368.07 167.69 367.77 174.08 363.65 177.84C359.54 181.6 353.14 181.32 349.38 177.19C338.58 165.35 332.9 162.47 330.86 161.77C330.1 163.32 328.7 167.52 328.59 177.33C326.81 251.98 336.03 263.14 337.73 264.55C337.84 264.21 340.54 263.1 345.53 257.49C349.26 253.33 355.64 252.96 359.8 256.66C363.97 260.38 364.34 266.76 360.63 270.93C352.47 280.08 344.59 284.69 337.11 284.69C334.8 284.69 332.53 284.26 330.29 283.38Z" id="b1w5nMRRD"></path><path d="M300.64 431.11C276.85 416.91 260.66 392.42 252.5 358.34C252.11 356.72 252.14 355.03 252.56 353.42C265.28 305.04 285.02 261.44 311.23 223.85C314.41 219.26 320.73 218.14 325.3 221.34C329.88 224.53 331 230.83 327.8 235.4C303.4 270.4 284.89 310.99 272.76 356.08C279.76 383.38 292.61 402.78 311 413.76C315.79 416.62 317.36 422.83 314.49 427.62C312.6 430.78 309.25 432.54 305.81 432.54C304.05 432.54 302.27 432.08 300.64 431.11Z" id="a2VVXOKpKX"></path><path d="M490 558.45C489.21 552.92 493.06 547.8 498.58 547.01C565.22 537.49 615.74 505.71 644.67 455.09C647.44 450.26 653.61 448.56 658.45 451.34C663.29 454.1 664.97 460.27 662.2 465.12C630.07 521.34 574.48 556.58 501.43 567.02C500.95 567.09 500.47 567.12 499.99 567.12C495.05 567.12 490.72 563.48 490 558.45Z" id="a1FlMOtWT"></path><path d="M498.58 567.02C425.15 556.52 369.55 521.28 337.79 465.08C335.04 460.23 336.75 454.06 341.62 451.32C346.46 448.56 352.65 450.28 355.37 455.14C383.94 505.67 434.44 537.45 501.43 547.01C506.96 547.8 510.8 552.93 510.01 558.45C509.29 563.48 504.96 567.12 500.02 567.12C499.55 567.12 499.06 567.09 498.58 567.02Z" id="e30H2glYlE"></path><path d="M438.34 393.72C424.01 383.48 414.76 367.19 411.59 346.57C410.74 341.06 414.52 335.91 420.04 335.06C425.61 334.21 430.7 337.98 431.55 343.51C433.91 358.82 440.14 370.18 450.08 377.28C461.62 385.51 478.29 387.96 498.23 384.4C503.73 383.47 508.97 387.08 509.95 392.56C510.93 398.06 507.27 403.31 501.79 404.29C494.67 405.56 487.84 406.19 481.33 406.19C464.53 406.19 449.9 401.99 438.34 393.72Z" id="b7WAl9eXe"></path><path d="M339.31 165.38C333.75 164.96 329.58 160.11 329.99 154.55C333.45 108.73 348.54 75.34 374.84 55.29C403.87 33.16 446.61 27.4 501.94 38.2C507.42 39.27 510.99 44.58 509.92 50.05C508.86 55.53 503.51 59.09 498.07 58.04C448.66 48.38 411.32 52.87 387.1 71.36C365.58 87.76 353.15 116.25 350.15 156.07C349.74 161.37 345.32 165.41 340.08 165.41C339.82 165.41 339.56 165.4 339.31 165.38Z" id="akVCBvKNb"></path><path d="M433.22 176.23C432.86 175.98 432.52 175.71 432.2 175.41C412.96 157.69 401.76 159.41 395 162.23C389.87 164.36 383.94 161.97 381.78 156.81C379.63 151.67 382.05 145.75 387.19 143.59C405.41 135.96 424.99 141.51 445.37 160.07C454.11 166.04 463.46 166.95 474.69 162.92C479.94 161.04 485.72 163.78 487.59 169.03C489.47 174.29 486.73 180.07 481.48 181.95C474.69 184.37 468.1 185.59 461.77 185.59C451.6 185.59 442.04 182.47 433.22 176.23Z" id="bgaWddX3J"></path><path d="M404.96 199.56C391.9 192.08 388.67 174.76 395.33 148.07C396.69 142.65 402.16 139.34 407.59 140.72C412.99 142.07 416.29 147.55 414.94 152.96C409.92 173.05 412.78 180.75 414.99 182.02C419.91 184.83 436.15 178.64 447.37 167.62C451.37 163.71 457.76 163.78 461.66 167.75C465.57 171.73 465.51 178.13 461.53 182.04C451.94 191.45 434.03 202.86 418.17 202.86C413.5 202.86 409.01 201.87 404.96 199.56Z" id="a3Gn6lK20"></path><path d="M518.18 181.95C512.93 180.07 510.19 174.29 512.06 169.03C513.94 163.78 519.75 161.04 524.97 162.92C536.2 166.94 545.9 166.01 554.6 160.09C579.69 136.83 600.08 138.28 612.81 143.59C617.95 145.75 620.37 151.67 618.23 156.81C616.05 161.98 610.12 164.37 605 162.23C601.04 160.57 588.98 155.52 567.87 175.34C567.53 175.66 567.16 175.96 566.78 176.23C558.02 182.42 548.25 185.55 537.91 185.55C531.52 185.55 524.9 184.35 518.18 181.95Z" id="e3Sb0xZBV"></path><path d="M538.41 181.97C534.46 178.02 534.46 171.63 538.4 167.68C542.36 163.74 548.75 163.74 552.69 167.68C563.65 178.63 579.74 184.85 584.77 182.02C587.18 180.66 589.96 173 585.05 152.92C583.73 147.5 587.04 142.03 592.47 140.7C597.79 139.38 603.35 142.69 604.68 148.12C611.22 174.88 607.85 192.21 594.68 199.63C590.62 201.92 586.13 202.89 581.5 202.89C565.62 202.89 547.86 191.42 538.41 181.97Z" id="b2BDKBoOYU"></path><path d="M456.71 331.17C453.58 326.55 454.8 320.26 459.42 317.15C464.05 314 470.32 315.24 473.44 319.86C479.32 328.56 489.01 333.56 500.01 333.56C510.84 333.56 520.76 328.44 526.56 319.86C529.68 315.24 535.94 314 540.58 317.15C545.21 320.26 546.42 326.55 543.29 331.17C533.74 345.31 517.55 353.76 500.01 353.76C482.45 353.76 466.26 345.31 456.71 331.17Z" id="b4HBiS4uAf"></path><path d="M707.02 589.9C707.02 579.11 707.02 492.81 707.02 482.02C707.02 478.28 709.08 474.83 712.4 473.09C715.71 471.34 719.73 471.56 722.82 473.68C726.48 476.18 755.8 496.18 759.46 498.68C764.06 501.81 765.25 508.1 762.1 512.72C758.98 517.32 752.69 518.52 748.06 515.36C746.68 514.41 739.73 509.67 727.22 501.14C727.22 554.4 727.22 583.98 727.22 589.9C727.22 595.48 722.7 600 717.12 600C711.54 600 707.02 595.48 707.02 589.9Z" id="hizaHhrg2"></path><path d="M761.77 574.62C756.74 571.2 716.47 543.8 711.43 540.37C706.82 537.23 705.63 530.94 708.76 526.33C711.92 521.73 718.17 520.54 722.8 523.67C727.84 527.09 768.11 554.49 773.15 557.92C777.76 561.05 778.95 567.34 775.81 571.96C773.86 574.82 770.68 576.37 767.45 576.37C765.49 576.37 763.52 575.8 761.77 574.62Z" id="eAUM0uLac"></path><path d="M708.78 537.72C705.63 533.1 706.82 526.82 711.42 523.68C715.08 521.18 744.4 501.18 748.06 498.68C752.69 495.53 758.98 496.72 762.1 501.32C765.25 505.93 764.06 512.22 759.46 515.36C755.8 517.86 726.48 537.86 722.82 540.36C721.07 541.55 719.09 542.12 717.13 542.12C713.9 542.12 710.72 540.58 708.78 537.72Z" id="b2qspP7jSb"></path><path d="M710.45 117.98C710.45 107.19 710.45 20.89 710.45 10.11C710.45 4.52 714.97 0 720.55 0C726.13 0 730.65 4.52 730.65 10.11C730.65 20.89 730.65 107.19 730.65 117.98C730.65 123.56 726.13 128.09 720.55 128.09C714.97 128.09 710.45 123.56 710.45 117.98Z" id="bl3QGuHLG"></path><path d="M761.79 84.9C757.1 81.72 719.57 56.24 714.88 53.05C710.26 49.92 709.06 43.64 712.2 39.02C715.31 34.4 721.61 33.18 726.23 36.33C730.92 39.52 768.45 65 773.14 68.18C777.75 71.31 778.95 77.6 775.81 82.22C773.87 85.09 770.68 86.65 767.45 86.65C765.5 86.65 763.52 86.08 761.79 84.9Z" id="c7AYxpZIF"></path><path d="M761.74 50.63C757.05 47.41 719.52 21.65 714.83 18.43C710.24 15.28 709.06 8.99 712.22 4.39C715.37 -0.21 721.65 -1.37 726.27 1.78C730.96 4.99 768.49 30.75 773.18 33.97C777.77 37.12 778.95 43.41 775.79 48.01C773.83 50.87 770.67 52.4 767.45 52.4C765.48 52.4 763.5 51.82 761.74 50.63Z" id="c1hZ7Xf0w"></path><path d="M222.44 117.98C222.44 107.19 222.44 20.89 222.44 10.11C222.44 4.52 226.96 0 232.54 0C238.12 0 242.64 4.52 242.64 10.11C242.64 20.89 242.64 107.19 242.64 117.98C242.64 123.56 238.12 128.09 232.54 128.09C226.96 128.09 222.44 123.56 222.44 117.98Z" id="c1Tl4GABtp"></path><path d="M224.2 82.93C221.05 78.33 222.23 72.04 226.83 68.89C235.19 63.17 302.03 17.42 310.39 11.7C315 8.52 321.29 9.73 324.44 14.33C327.59 18.93 326.41 25.22 321.81 28.37C313.45 34.09 246.61 79.84 238.25 85.56C236.5 86.76 234.51 87.33 232.55 87.33C229.33 87.33 226.16 85.79 224.2 82.93Z" id="b29ioTa457"></path><path d="M224.21 48.36C221.05 43.75 222.23 37.47 226.83 34.31C230.97 31.47 264.12 8.72 268.27 5.88C272.87 2.73 279.14 3.89 282.31 8.49C285.47 13.1 284.29 19.38 279.69 22.54C275.54 25.38 242.39 48.13 238.25 50.97C236.5 52.17 234.52 52.74 232.55 52.74C229.33 52.74 226.17 51.21 224.21 48.36Z" id="l3NuceKWOb"></path><path d="M222.44 589.9C222.44 579.11 222.44 492.81 222.44 482.02C222.44 476.44 226.96 471.92 232.54 471.92C238.12 471.92 242.64 476.44 242.64 482.02C242.64 492.81 242.64 579.11 242.64 589.9C242.64 595.48 238.12 600 232.54 600C226.96 600 222.44 595.48 222.44 589.9Z" id="b2ZSTrEoOY"></path><path d="M263.17 517.2C259.51 514.49 230.2 492.85 226.54 490.15C222.05 486.83 221.1 480.51 224.41 476.01C227.73 471.54 234.05 470.56 238.55 473.89C242.21 476.59 271.52 498.24 275.18 500.94C279.66 504.26 280.62 510.58 277.3 515.08C275.32 517.75 272.27 519.17 269.16 519.17C267.09 519.17 264.97 518.53 263.17 517.2Z" id="afwQAmF0i"></path><path d="M224.41 542.13C221.1 537.63 222.05 531.31 226.54 528C230.2 525.29 259.51 503.65 263.17 500.94C267.66 497.61 273.99 498.58 277.3 503.07C280.62 507.56 279.66 513.88 275.18 517.2C271.52 519.91 242.21 541.55 238.55 544.25C236.74 545.59 234.63 546.22 232.55 546.22C229.45 546.22 226.39 544.81 224.41 542.13Z" id="fqc0VVC4"></path><path d="M263.22 571.01C259.55 568.34 230.25 546.96 226.58 544.29C222.08 541 221.1 534.67 224.38 530.17C227.67 525.68 233.96 524.66 238.5 527.96C242.16 530.63 271.47 552.01 275.13 554.68C279.64 557.97 280.62 564.3 277.34 568.81C275.36 571.51 272.29 572.95 269.16 572.95C267.1 572.95 265.02 572.32 263.22 571.01Z" id="c3cYYIHUp"></path><path d="M224.41 595.91C221.1 591.41 222.05 585.09 226.54 581.77C230.2 579.07 259.51 557.42 263.17 554.72C267.66 551.39 273.99 552.36 277.3 556.84C280.62 561.34 279.66 567.66 275.18 570.98C271.52 573.68 242.21 595.32 238.55 598.03C236.74 599.36 234.63 600 232.55 600C229.45 600 226.39 598.58 224.41 595.91Z" id="co15nkVon"></path></defs><g><g><use xlink:href="#g1DBX46hzl" opacity="1" fill="#000000" fill-opacity="1"></use><g><use xlink:href="#g1DBX46hzl" opacity="1" fill-opacity="0" stroke="#000000" stroke-width="1" stroke-opacity="0"></use></g></g><g><use xlink:href="#f4AYd0cllJ" opacity="1" fill="#000000" fill-opacity="1"></use><g><use xlink:href="#f4AYd0cllJ" opacity="1" fill-opacity="0" stroke="#000000" stroke-width="1" stroke-opacity="0"></use></g></g><g><use xlink:href="#bBzWshpUR" opacity="1" fill="#000000" fill-opacity="1"></use><g><use xlink:href="#bBzWshpUR" opacity="1" fill-opacity="0" stroke="#000000" stroke-width="1" stroke-opacity="0"></use></g></g><g><use xlink:href="#a5AOv5QIHI" opacity="1" fill="#000000" fill-opacity="1"></use><g><use xlink:href="#a5AOv5QIHI" opacity="1" fill-opacity="0" stroke="#000000" stroke-width="1" stroke-opacity="0"></use></g></g><g><use xlink:href="#bs3EdDSMw" opacity="1" fill="#000000" fill-opacity="1"></use><g><use xlink:href="#bs3EdDSMw" opacity="1" fill-opacity="0" stroke="#000000" stroke-width="1" stroke-opacity="0"></use></g></g><g><use xlink:href="#f5vo2Z2Jcj" opacity="1" fill="#000000" fill-opacity="1"></use><g><use xlink:href="#f5vo2Z2Jcj" opacity="1" fill-opacity="0" stroke="#000000" stroke-width="1" stroke-opacity="0"></use></g></g><g><use xlink:href="#b16e9ZEzS1" opacity="1" fill="#000000" fill-opacity="1"></use><g><use xlink:href="#b16e9ZEzS1" opacity="1" fill-opacity="0" stroke="#000000" stroke-width="1" stroke-opacity="0"></use></g></g><g><use xlink:href="#cKBaa28Bm" opacity="1" fill="#000000" fill-opacity="1"></use><g><use xlink:href="#cKBaa28Bm" opacity="1" fill-opacity="0" stroke="#000000" stroke-width="1" stroke-opacity="0"></use></g></g><g><use xlink:href="#b1w5nMRRD" opacity="1" fill="#000000" fill-opacity="1"></use><g><use xlink:href="#b1w5nMRRD" opacity="1" fill-opacity="0" stroke="#000000" stroke-width="1" stroke-opacity="0"></use></g></g><g><use xlink:href="#a2VVXOKpKX" opacity="1" fill="#000000" fill-opacity="1"></use><g><use xlink:href="#a2VVXOKpKX" opacity="1" fill-opacity="0" stroke="#000000" stroke-width="1" stroke-opacity="0"></use></g></g><g><use xlink:href="#a1FlMOtWT" opacity="1" fill="#000000" fill-opacity="1"></use><g><use xlink:href="#a1FlMOtWT" opacity="1" fill-opacity="0" stroke="#000000" stroke-width="1" stroke-opacity="0"></use></g></g><g><use xlink:href="#e30H2glYlE" opacity="1" fill="#000000" fill-opacity="1"></use><g><use xlink:href="#e30H2glYlE" opacity="1" fill-opacity="0" stroke="#000000" stroke-width="1" stroke-opacity="0"></use></g></g><g><use xlink:href="#b7WAl9eXe" opacity="1" fill="#000000" fill-opacity="1"></use><g><use xlink:href="#b7WAl9eXe" opacity="1" fill-opacity="0" stroke="#000000" stroke-width="1" stroke-opacity="0"></use></g></g><g><use xlink:href="#akVCBvKNb" opacity="1" fill="#000000" fill-opacity="1"></use><g><use xlink:href="#akVCBvKNb" opacity="1" fill-opacity="0" stroke="#000000" stroke-width="1" stroke-opacity="0"></use></g></g><g><use xlink:href="#bgaWddX3J" opacity="1" fill="#000000" fill-opacity="1"></use><g><use xlink:href="#bgaWddX3J" opacity="1" fill-opacity="0" stroke="#000000" stroke-width="1" stroke-opacity="0"></use></g></g><g><use xlink:href="#a3Gn6lK20" opacity="1" fill="#000000" fill-opacity="1"></use><g><use xlink:href="#a3Gn6lK20" opacity="1" fill-opacity="0" stroke="#000000" stroke-width="1" stroke-opacity="0"></use></g></g><g><use xlink:href="#e3Sb0xZBV" opacity="1" fill="#000000" fill-opacity="1"></use><g><use xlink:href="#e3Sb0xZBV" opacity="1" fill-opacity="0" stroke="#000000" stroke-width="1" stroke-opacity="0"></use></g></g><g><use xlink:href="#b2BDKBoOYU" opacity="1" fill="#000000" fill-opacity="1"></use><g><use xlink:href="#b2BDKBoOYU" opacity="1" fill-opacity="0" stroke="#000000" stroke-width="1" stroke-opacity="0"></use></g></g><g><use xlink:href="#b4HBiS4uAf" opacity="1" fill="#000000" fill-opacity="1"></use><g><use xlink:href="#b4HBiS4uAf" opacity="1" fill-opacity="0" stroke="#000000" stroke-width="1" stroke-opacity="0"></use></g></g><g><use xlink:href="#hizaHhrg2" opacity="1" fill="#000000" fill-opacity="1"></use><g><use xlink:href="#hizaHhrg2" opacity="1" fill-opacity="0" stroke="#000000" stroke-width="1" stroke-opacity="0"></use></g></g><g><use xlink:href="#eAUM0uLac" opacity="1" fill="#000000" fill-opacity="1"></use><g><use xlink:href="#eAUM0uLac" opacity="1" fill-opacity="0" stroke="#000000" stroke-width="1" stroke-opacity="0"></use></g></g><g><use xlink:href="#b2qspP7jSb" opacity="1" fill="#000000" fill-opacity="1"></use><g><use xlink:href="#b2qspP7jSb" opacity="1" fill-opacity="0" stroke="#000000" stroke-width="1" stroke-opacity="0"></use></g></g><g><use xlink:href="#bl3QGuHLG" opacity="1" fill="#000000" fill-opacity="1"></use><g><use xlink:href="#bl3QGuHLG" opacity="1" fill-opacity="0" stroke="#000000" stroke-width="1" stroke-opacity="0"></use></g></g><g><use xlink:href="#c7AYxpZIF" opacity="1" fill="#000000" fill-opacity="1"></use><g><use xlink:href="#c7AYxpZIF" opacity="1" fill-opacity="0" stroke="#000000" stroke-width="1" stroke-opacity="0"></use></g></g><g><use xlink:href="#c1hZ7Xf0w" opacity="1" fill="#000000" fill-opacity="1"></use><g><use xlink:href="#c1hZ7Xf0w" opacity="1" fill-opacity="0" stroke="#000000" stroke-width="1" stroke-opacity="0"></use></g></g><g><use xlink:href="#c1Tl4GABtp" opacity="1" fill="#000000" fill-opacity="1"></use><g><use xlink:href="#c1Tl4GABtp" opacity="1" fill-opacity="0" stroke="#000000" stroke-width="1" stroke-opacity="0"></use></g></g><g><use xlink:href="#b29ioTa457" opacity="1" fill="#000000" fill-opacity="1"></use><g><use xlink:href="#b29ioTa457" opacity="1" fill-opacity="0" stroke="#000000" stroke-width="1" stroke-opacity="0"></use></g></g><g><use xlink:href="#l3NuceKWOb" opacity="1" fill="#000000" fill-opacity="1"></use><g><use xlink:href="#l3NuceKWOb" opacity="1" fill-opacity="0" stroke="#000000" stroke-width="1" stroke-opacity="0"></use></g></g><g><use xlink:href="#b2ZSTrEoOY" opacity="1" fill="#000000" fill-opacity="1"></use><g><use xlink:href="#b2ZSTrEoOY" opacity="1" fill-opacity="0" stroke="#000000" stroke-width="1" stroke-opacity="0"></use></g></g><g><use xlink:href="#afwQAmF0i" opacity="1" fill="#000000" fill-opacity="1"></use><g><use xlink:href="#afwQAmF0i" opacity="1" fill-opacity="0" stroke="#000000" stroke-width="1" stroke-opacity="0"></use></g></g><g><use xlink:href="#fqc0VVC4" opacity="1" fill="#000000" fill-opacity="1"></use><g><use xlink:href="#fqc0VVC4" opacity="1" fill-opacity="0" stroke="#000000" stroke-width="1" stroke-opacity="0"></use></g></g><g><use xlink:href="#c3cYYIHUp" opacity="1" fill="#000000" fill-opacity="1"></use><g><use xlink:href="#c3cYYIHUp" opacity="1" fill-opacity="0" stroke="#000000" stroke-width="1" stroke-opacity="0"></use></g></g><g><use xlink:href="#co15nkVon" opacity="1" fill="#000000" fill-opacity="1"></use><g><use xlink:href="#co15nkVon" opacity="1" fill-opacity="0" stroke="#000000" stroke-width="1" stroke-opacity="0"></use></g></g></g></svg>